<svg width="24" height="24" viewBox="0 0 24 24" fill="none" xmlns="http://www.w3.org/2000/svg">
<path d="M16.0106 5.85815L16.0096 5.85985C15.8984 6.04881 15.9288 6.27544 16.025 6.44566C16.1214 6.61612 16.3003 6.75925 16.5224 6.75925H21.4407V10.9874C21.0489 10.8198 20.6261 10.7093 20.1685 10.7093C18.2971 10.7093 16.7778 12.2286 16.7778 14.1C16.7778 15.9714 18.2971 17.4907 20.1685 17.4907C20.627 17.4907 21.0499 17.3735 21.4407 17.2047V21.4407H6.75925V16.5224C6.75925 16.3014 6.61942 16.1225 6.45107 16.0247C6.28315 15.9272 6.05939 15.8944 5.87052 15.9999L5.8705 15.9999L5.86756 16.0016C5.53871 16.1974 5.17208 16.3065 4.76575 16.3065C3.54473 16.3065 2.55925 15.3287 2.55925 14.1C2.55925 12.8713 3.54473 11.8935 4.76575 11.8935C5.17378 11.8935 5.54018 11.9952 5.86756 12.1901L5.86754 12.1901L5.87052 12.1918C6.05933 12.2973 6.28287 12.2645 6.45048 12.1684C6.61812 12.0722 6.75925 11.8956 6.75925 11.6776V6.75925H11.6776C11.8997 6.75925 12.0786 6.61612 12.175 6.44566C12.2712 6.27544 12.3016 6.04881 12.1904 5.85985L12.1904 5.85984L12.1894 5.85815C11.9953 5.53988 11.8935 5.17403 11.8935 4.76575C11.8935 3.54473 12.8713 2.55925 14.1 2.55925C15.3287 2.55925 16.3065 3.54473 16.3065 4.76575C16.3065 5.17403 16.2047 5.53988 16.0106 5.85815ZM14.1 1.375C12.2284 1.375 10.7093 2.90282 10.7093 4.76575C10.7093 5.05123 10.7506 5.31806 10.8177 5.575H6.16299C6.0045 5.575 5.85825 5.64814 5.7532 5.7532C5.64814 5.85826 5.575 6.0045 5.575 6.16299V10.8177C5.31806 10.7506 5.05123 10.7093 4.76575 10.7093C2.90282 10.7093 1.375 12.2284 1.375 14.1C1.375 15.9716 2.90282 17.4907 4.76575 17.4907C5.05123 17.4907 5.31806 17.4494 5.575 17.3823V22.037C5.575 22.1955 5.64814 22.3417 5.7532 22.4468C5.85825 22.5519 6.0045 22.625 6.16299 22.625H22.037C22.1955 22.625 22.3417 22.5519 22.4468 22.4468C22.5519 22.3417 22.625 22.1955 22.625 22.037V16.1835C22.625 15.9547 22.4908 15.7351 22.2785 15.6396C22.0682 15.5449 21.808 15.5858 21.6383 15.7441C21.2473 16.0957 20.7315 16.3065 20.1685 16.3065C18.9395 16.3065 17.962 15.329 17.962 14.1C17.962 12.871 18.9395 11.8935 20.1685 11.8935C20.7328 11.8935 21.2482 12.0969 21.6383 12.4476C21.8074 12.6054 22.0592 12.6471 22.2702 12.5522C22.4778 12.4587 22.625 12.2421 22.625 12.0165V6.16299C22.625 6.0045 22.5519 5.85826 22.4468 5.7532C22.3417 5.64814 22.1955 5.575 22.037 5.575H17.3823C17.4494 5.31806 17.4907 5.05123 17.4907 4.76575C17.4907 2.90282 15.9716 1.375 14.1 1.375Z" fill="white" stroke="white" stroke-width="0.25"/>
</svg>
